<?xml version="1.0" encoding="UTF-8"?>
<svg width="434px" height="295px" viewBox="0 0 434 295" version="1.1" xmlns="http://www.w3.org/2000/svg" xmlns:xlink="http://www.w3.org/1999/xlink">
    <!-- Generator: Sketch 49.1 (51147) - http://www.bohemiancoding.com/sketch -->
    <title>Artboard</title>
    <desc>Created with Sketch.</desc>
    <defs></defs>
    <g id="Artboard" stroke="none" stroke-width="1" fill="none" fill-rule="evenodd">
        <g id="CV-Logo" fill="#FFFFFF" fill-rule="nonzero">
            <path d="M257,194.4 C266.3,176 275.4,158.1 284.4,140.1 C307,94.9 329.6,49.6 352.1,4.3 C353.6,1.2 355.3,0 358.9,0 C381.4,0.2 403.9,0.1 426.4,0.1 C427.9,0.1 429.3,0.3 431.4,0.4 C382.5,98.2 333.9,195.4 284.9,293.4 C274.8,273.3 265.1,254.1 255.7,235.5 C246.3,243.7 237.6,252.6 227.7,259.7 C142.2,320.7 23.5,272.9 3.5,169.7 C-11.8,90.3 44.1,12.2 124.1,1.5 C168.6,-4.4 207.7,7.9 241.3,37.7 C243.8,39.9 243.9,41.5 242.4,44.4 C232.8,63.2 223.4,82.1 214.1,101.1 C213.2,102.9 212.7,105.8 213.5,107.4 C227.3,135.6 241.4,163.8 255.4,191.9 C255.7,192.6 256.2,193.3 257,194.4 Z M209.6,211.6 C186,235.1 148,244.9 114,232.6 C77,219.2 54.5,192.5 50.7,153.4 C46.2,107.1 68.2,74.7 110,54.5 C105.7,46 101.4,37.3 97,28.5 C94.9,29.4 93.4,30 91.9,30.7 C24.6,62.3 -0.2,144.8 38.5,208.2 C83.9,282.6 191.4,288 243.2,218.5 C244.7,216.5 245.6,215 244.2,212.3 C221.7,167.4 199.4,122.3 177,77.4 C176.3,76 175.1,74.5 173.8,73.9 C162.6,69.1 151,67 138,68 C162,116.2 185.8,163.9 209.6,211.6 Z M118.9,72.6 C92.2,79.8 71.5,108 68.9,140.1 C66.5,169.2 85.4,199.5 113.8,212.4 C139.8,224.2 171.1,218.2 185.4,205.8 C163.3,161.4 141.1,116.9 118.9,72.6 Z M284.8,250.9 C323.5,173.4 361.9,96.6 400.7,19.2 C389.9,19.2 380.1,19.3 370.3,19.1 C367.1,19 365.6,20.2 364.3,23 C353,45.8 341.5,68.6 330.1,91.3 C309.9,131.4 289.8,171.6 269.7,211.7 C268.8,213.5 267.8,216.1 268.5,217.5 C273.5,228.5 279,239.3 284.8,250.9 Z M170.9,22.1 C177.4,35.2 183.4,47.3 189.5,59.5 C189.8,60.2 190.6,60.8 191.2,61.2 C196.4,64.7 201.7,68.2 207.3,71.9 C211.7,63.1 216.1,54.2 220.5,45.3 C205.7,33.9 189.8,26.1 170.9,22.1 Z M115.4,22.7 C119.7,31.3 123.7,39.5 127.9,47.5 C128.5,48.6 130.7,49.4 132.2,49.4 C137,49.4 141.8,48.7 146.6,48.8 C152.1,48.9 157.6,49.7 163.6,50.2 C158.7,40.4 154.1,31.1 149.3,21.8 C148.8,20.8 147.6,19.3 146.7,19.3 C136.2,18.8 125.9,19.8 115.4,22.7 Z" id="Shape"></path>
        </g>
    </g>
</svg>